<svg id="visual" viewBox="0 0 900 600" width="900" height="600" xmlns="http://www.w3.org/2000/svg" xmlns:xlink="http://www.w3.org/1999/xlink" version="1.1"><path d="M0 391L37.5 396.7C75 402.3 150 413.7 225 416.2C300 418.7 375 412.3 450 412C525 411.7 600 417.3 675 410.5C750 403.7 825 384.3 862.5 374.7L900 365L900 601L862.5 601C825 601 750 601 675 601C600 601 525 601 450 601C375 601 300 601 225 601C150 601 75 601 37.5 601L0 601Z" fill="#3e839a"></path><path d="M0 454L37.5 450.3C75 446.7 150 439.3 225 444.3C300 449.3 375 466.7 450 470C525 473.3 600 462.7 675 457.5C750 452.3 825 452.7 862.5 452.8L900 453L900 601L862.5 601C825 601 750 601 675 601C600 601 525 601 450 601C375 601 300 601 225 601C150 601 75 601 37.5 601L0 601Z" fill="#104555"></path></svg>